<?xml version="1.0" encoding="UTF-8"?>
<svg version="1.1" xmlns="http://www.w3.org/2000/svg" width="2048" height="2048">
<path d="M0 0 C0.66 0.33 1.32 0.66 2 1 C6.9493635 19.57445559 5.40744011 41.35058989 5.375 60.4375 C5.37418427 62.27178558 5.37418427 62.27178558 5.37335205 64.14312744 C5.26768166 116.3789616 -1.74071733 168.24018641 -18 218 C-18.26248535 218.80663086 -18.5249707 219.61326172 -18.79541016 220.44433594 C-26.36435528 243.44489156 -35.71463319 267.44610406 -48.7109375 287.95703125 C-50.04704429 290.07455806 -51.2462476 292.23560444 -52.4375 294.4375 C-59.98686456 308.10280546 -69.28130398 320.8070488 -79 333 C-79.62390625 333.79792969 -80.2478125 334.59585937 -80.890625 335.41796875 C-85.03152705 340.67561014 -89.35414123 345.7070343 -93.8671875 350.6484375 C-95.68368681 352.65124444 -97.44054119 354.68700844 -99.1875 356.75 C-106.88644496 365.5590254 -115.23790531 373.98142837 -124.53515625 381.09375 C-127.2916454 383.22555143 -129.91735151 385.48170442 -132.5625 387.75 C-152.09876168 404.08031105 -174.13723399 417.9083609 -197 429 C-197.76054688 429.37060547 -198.52109375 429.74121094 -199.3046875 430.12304688 C-242.50758368 451.1144873 -288.70318824 463.86409883 -336.98217773 463.52148438 C-340.56627814 463.49997733 -344.14837984 463.5214857 -347.73242188 463.546875 C-402.93070176 463.61320552 -462.71696228 445.55944496 -507 412 C-507.94617188 411.30519531 -508.89234375 410.61039063 -509.8671875 409.89453125 C-532.85464566 392.90252973 -554.21056972 373.24241132 -571 350 C-571.71027344 349.03578125 -572.42054688 348.0715625 -573.15234375 347.078125 C-586.33860883 328.66981281 -597.6818567 308.65626846 -604.89453125 287.1484375 C-605.96357774 283.95613697 -605.96357774 283.95613697 -607.4453125 280.8125 C-609.57698401 275.92874009 -610.76087666 270.77822999 -612.0625 265.625 C-612.44631836 264.14 -612.44631836 264.14 -612.83789062 262.625 C-616.82241326 247.09662903 -619.44647778 232.09800429 -619 216 C-613.28029148 216.53057439 -607.80974222 217.40065923 -602.20849609 218.66333008 C-596.82479315 219.87014732 -591.41437597 220.94064864 -586 222 C-584.95344238 222.20625 -583.90688477 222.4125 -582.82861328 222.625 C-537.09109988 231.19593794 -488.11903485 227.17485635 -443 217 C-441.55246338 216.68772461 -441.55246338 216.68772461 -440.07568359 216.36914062 C-399.72217332 207.65347966 -361.41354759 192.6319943 -324.02294922 175.39257812 C-321.41762987 174.19238902 -318.80645498 173.00689723 -316.19140625 171.828125 C-305.38301706 166.90979157 -295.01252203 161.2268987 -284.63671875 155.4609375 C-282.23269963 154.12893283 -279.82159991 152.81131081 -277.40625 151.5 C-259.74013644 141.87003501 -242.6327635 131.31507709 -226 120 C-224.10502527 118.74869875 -222.2092109 117.49866801 -220.3125 116.25 C-200.09773223 102.75535019 -180.5511582 88.37042364 -161.65234375 73.08984375 C-160.77707031 72.40019531 -159.90179687 71.71054688 -159 71 C-158.50338867 70.50709473 -158.00677734 70.01418945 -157.49511719 69.50634766 C-151.44639105 64.03504557 -144.46518838 63.59529757 -136.69558716 62.75445557 C-132.75393295 62.32224777 -128.82462403 61.79932593 -124.89453125 61.2734375 C-124.12006149 61.17054413 -123.34559174 61.06765076 -122.5476532 60.9616394 C-112.74326627 59.61498897 -103.39548064 57.06329675 -94 54 C-93.16549316 53.73461426 -92.33098633 53.46922852 -91.47119141 53.19580078 C-58.23614686 42.52972951 -24.29752882 25.61090875 0 0 Z " fill="#4D96FE" transform="translate(1183,1161)"/>
<path d="M0 0 C3.70066366 1.23355455 3.99433023 2.20965292 5.890625 5.5234375 C6.43187012 6.45704102 6.97311523 7.39064453 7.53076172 8.35253906 C8.38178467 9.84865723 8.38178467 9.84865723 9.25 11.375 C10.42325478 13.39914769 11.59772019 15.42259417 12.7734375 17.4453125 C13.33385742 18.4137207 13.89427734 19.38212891 14.47167969 20.37988281 C28.2108775 43.9340475 45.51806609 64.6623021 64.6875 83.9375 C65.17278168 84.42804871 65.65806335 84.91859741 66.15805054 85.42401123 C71.78950417 91.102706 77.54710947 96.45358631 83.88061523 101.35205078 C85.77314841 102.82360923 87.58268042 104.34667524 89.375 105.9375 C94.36230436 110.24366789 99.68120993 114.11718099 105 118 C105.92449951 118.67724121 105.92449951 118.67724121 106.86767578 119.36816406 C123.46478532 131.46978991 140.91286746 142.14487247 158.97998047 151.90185547 C160.83152975 152.90841441 162.66917397 153.9358619 164.50390625 154.97265625 C227.77032509 190.02469945 304.20938356 208.77873881 375.63671875 217.5859375 C376.89097656 217.74320313 378.14523437 217.90046875 379.4375 218.0625 C380.46746094 218.17722656 381.49742187 218.29195312 382.55859375 218.41015625 C386.46139368 219.35307271 388.18275234 222.08917012 390.3125 225.3359375 C406.75408684 250.04619388 428.04494765 272.73527912 453 289 C453.76006348 289.49773926 454.52012695 289.99547852 455.30322266 290.50830078 C479.98714531 306.48945806 507.14750624 318.09482174 536 324 C536 325.32 536 326.64 536 328 C534.04296875 329.90234375 534.04296875 329.90234375 531.1875 331.9375 C530.65833984 332.3180957 530.12917969 332.69869141 529.58398438 333.09082031 C527.73405819 334.41085239 525.86854165 335.70646479 524 337 C523.30342285 337.48678223 522.6068457 337.97356445 521.88916016 338.47509766 C505.27815638 350.06578924 488.28218433 361.0939673 471.04785156 371.73339844 C468.8380521 373.1001652 466.63404394 374.47603668 464.4296875 375.8515625 C457.04695355 380.43631268 449.70800001 384.81569999 441.859375 388.5703125 C438.8078153 390.09609235 435.92599807 391.80835688 433 393.5625 C421.5023875 400.31250751 409.13257433 405.50830944 397 411 C395.91654297 411.49467773 394.83308594 411.98935547 393.71679688 412.49902344 C356.49418101 429.46577273 317.79573675 442.11995582 277.5 449.25 C276.79528564 449.3750592 276.09057129 449.50011841 275.36450195 449.62896729 C261.9207088 451.99463183 248.40697035 454.09319952 234.75 454.625 C233.87069824 454.66222168 232.99139648 454.69944336 232.08544922 454.73779297 C222.71998697 455.10076945 213.37027293 455.16628387 204 455 C203.12714355 454.98743164 202.25428711 454.97486328 201.35498047 454.96191406 C140.68963886 453.88780323 81.47733034 434.63907368 33 398 C32.18917969 397.38898438 31.37835938 396.77796875 30.54296875 396.1484375 C28.33974931 394.45840228 26.16970944 392.73281711 24 391 C23.19602783 390.36570068 22.39205566 389.73140137 21.5637207 389.07788086 C14.57723395 383.48157888 8.17493821 377.47810225 1.875 371.125 C0.95074219 370.20847656 0.02648437 369.29195312 -0.92578125 368.34765625 C-29.17766882 340.01607365 -49.32071833 304.34661028 -63 267 C-63.30131836 266.18144531 -63.60263672 265.36289063 -63.91308594 264.51953125 C-69.21989814 249.79297112 -72.27633094 234.38587761 -75 219 C-75.29801514 217.32997925 -75.29801514 217.32997925 -75.60205078 215.6262207 C-77.46600642 203.69540544 -77.39708796 191.73681751 -77.375 179.6875 C-77.37445618 178.57572388 -77.37391235 177.46394775 -77.37335205 176.31848145 C-77.33635862 159.89162426 -76.83918419 144.04738365 -73 128 C-72.78037598 127.05995117 -72.56075195 126.11990234 -72.33447266 125.15136719 C-70.78607506 118.69258768 -68.97561587 112.33998551 -67 106 C-66.62367432 104.76854248 -66.62367432 104.76854248 -66.23974609 103.51220703 C-58.75234176 79.39361647 -47.00927714 56.30853567 -32 36 C-30.94619141 34.5459375 -30.94619141 34.5459375 -29.87109375 33.0625 C-20.96956151 21.09602503 -10.57648135 10.48528732 0 0 Z " fill="#9B72CF" transform="translate(439,896)"/>
<path d="M0 0 C1.2286377 0.03464355 2.45727539 0.06928711 3.72314453 0.10498047 C10.33955997 0.35204399 16.40594531 1.00156455 22.8125 2.6875 C21.88614415 8.22383848 20.85584434 13.69188861 19.4375 19.125 C15.12238943 36.12392044 12.57163559 53.24790745 10.8125 70.6875 C10.72884186 71.49462936 10.64518372 72.30175873 10.55899048 73.13334656 C9.93455159 79.48057145 9.6407755 85.76058163 9.609375 92.13671875 C9.60240601 93.10006638 9.59543701 94.063414 9.58825684 95.05595398 C9.57092541 98.16234756 9.56453235 101.26856001 9.5625 104.375 C9.56149292 105.44107483 9.56048584 106.50714966 9.55944824 107.60552979 C9.57104511 125.81362827 10.41490318 143.62442119 12.8125 161.6875 C12.96235352 162.81655762 13.11220703 163.94561523 13.26660156 165.10888672 C14.30175524 172.66155254 15.52055271 180.17502295 16.8125 187.6875 C16.99006836 188.75178223 17.16763672 189.81606445 17.35058594 190.91259766 C26.78131452 247.08511025 45.10182758 301.45119887 69.8125 352.6875 C70.18439453 353.45916504 70.55628906 354.23083008 70.93945312 355.02587891 C72.79116976 358.84251355 74.6974193 362.62811336 76.63964844 366.39941406 C78.06710925 369.18421063 79.47346228 371.97943262 80.8828125 374.7734375 C85.69827956 384.24854681 90.49199597 393.67629531 96.05078125 402.73828125 C96.39816849 403.3057457 96.74555573 403.87321014 97.10346985 404.45787048 C98.77342662 407.17385463 100.46651601 409.87186135 102.18969727 412.55444336 C107.84068794 421.58353922 107.84068794 421.58353922 106.8125 427.6875 C106.13253916 430.38226285 105.39545923 432.98056541 104.5625 435.625 C99.68307909 452.18117531 97.11750591 469.43511463 96.8125 486.6875 C96.78978027 487.86989258 96.78978027 487.86989258 96.76660156 489.07617188 C96.31948719 517.01536778 99.61645719 543.7737958 108.24414062 570.4609375 C108.8125 572.6875 108.8125 572.6875 108.8125 576.6875 C98.03364931 576.21624086 87.73415835 574.34120836 77.1875 572.1875 C76.32066589 572.0124292 75.45383179 571.8373584 74.56072998 571.65698242 C-9.1156797 554.69505737 -91.80570832 523.40735444 -169.17382812 452.96191406 C-171.07458925 451.05034199 -172.98593831 449.14982071 -174.8984375 447.25 C-181.12562961 441.02988281 -187.00890927 434.82909444 -192.1875 427.6875 C-192.99574219 426.66785156 -193.80398438 425.64820313 -194.63671875 424.59765625 C-233.0125866 375.77390814 -254.45529056 316.26584006 -254.375 254.125 C-254.37472809 253.33169281 -254.37445618 252.53838562 -254.37417603 251.72103882 C-254.35510819 239.60747235 -253.98144395 227.6864303 -252.1875 215.6875 C-252.09098145 214.99881836 -251.99446289 214.31013672 -251.89501953 213.60058594 C-249.09546856 194.0451018 -243.57781123 174.97831478 -236.1875 156.6875 C-235.77612793 155.65834473 -235.77612793 155.65834473 -235.35644531 154.60839844 C-222.45353971 122.68257108 -201.81833859 95.12884934 -177.60351562 70.91821289 C-176.18327852 69.49577197 -174.7712824 68.06546916 -173.359375 66.63476562 C-167.92240423 61.18640455 -162.39107344 56.23986261 -156.1875 51.6875 C-154.95292969 50.75155966 -153.71854498 49.81537442 -152.484375 48.87890625 C-107.69100137 15.48917899 -55.84384403 -1.74313528 0 0 Z " fill="#FE6FB4" transform="translate(695.1875,497.3125)"/>
<path d="M0 0 C1.05346115 -0.00101212 1.05346115 -0.00101212 2.12820435 -0.00204468 C15.2310422 0.01778929 27.94224538 1.07088653 40.875 3.25 C41.85388184 3.4056543 42.83276367 3.56130859 43.84130859 3.72167969 C75.94466575 8.93268955 106.53022346 20.63646067 133.875 38.25 C134.95136719 38.93964844 136.02773437 39.62929688 137.13671875 40.33984375 C143.29257593 44.36393609 149.14503327 48.64568769 154.875 53.25 C155.66849854 53.87527588 156.46199707 54.50055176 157.27954102 55.14477539 C164.72058053 61.09299436 171.53147321 67.50728835 178.25 74.25 C178.79648193 74.79669342 179.34296387 75.34338684 179.90600586 75.90664673 C188.73735133 84.77204084 196.85032042 93.86067076 203.875 104.25 C204.30683594 104.88502441 204.73867187 105.52004883 205.18359375 106.17431641 C207.85415841 110.13856266 210.39619207 114.16331665 212.875 118.25 C213.42285156 119.13816406 213.97070312 120.02632813 214.53515625 120.94140625 C216.94273675 125.01216214 218.13422959 127.42498473 217.875 132.25 C217.26398438 132.48332031 216.65296875 132.71664062 216.0234375 132.95703125 C199.5756336 139.51298689 183.84164101 147.81648082 168.875 157.25 C167.98683594 157.7965625 167.09867188 158.343125 166.18359375 158.90625 C152.83543142 167.2208305 139.86713507 176.07130975 127.875 186.25 C126.21186578 187.56697327 124.54519098 188.87948772 122.875 190.1875 C118.30925683 193.82560011 113.99647015 197.69768683 109.7109375 201.66015625 C107.52203922 203.65910881 105.30993198 205.60704315 103.06640625 207.54296875 C98.68806698 211.36369907 94.54371311 215.39005015 90.4375 219.5 C89.32000366 220.61652954 89.32000366 220.61652954 88.17993164 221.75561523 C83.3864142 226.59521915 78.98449462 231.53787104 74.78515625 236.90234375 C72.89467582 239.22581766 70.89920839 241.29104271 68.75 243.375 C65.37027969 246.66121026 62.49675009 250.14123056 59.65625 253.8984375 C57.77220702 256.38570477 55.83151688 258.81940404 53.875 261.25 C47.31890033 269.43251671 41.0000369 277.73930562 34.875 286.25 C33.71484375 287.84134766 33.71484375 287.84134766 32.53125 289.46484375 C26.44439802 297.84947019 20.764318 306.45811651 15.19335938 315.19238281 C13.93663318 317.15380658 12.66672504 319.10582751 11.390625 321.0546875 C7.51442723 326.98756152 3.84528624 332.95831657 0.52734375 339.2265625 C-1.14404882 342.28485529 -2.90816281 345.27058832 -4.69775391 348.26049805 C-8.78086859 355.08635738 -12.61476666 361.95558194 -16.0914917 369.11032104 C-18.0533381 373.14173705 -20.10532591 377.10766315 -22.24533081 381.04704285 C-27.52369631 390.79136354 -32.07796169 400.78198038 -36.5 410.9375 C-37.54827966 413.33014386 -38.59838194 415.72197391 -39.64981079 418.11323547 C-40.2942444 419.58035929 -40.93662887 421.0483857 -41.57650757 422.51750183 C-42.41462203 424.4336291 -43.26899166 426.34181911 -44.125 428.25 C-44.60557861 429.35529053 -45.08615723 430.46058105 -45.58129883 431.59936523 C-47.28778293 434.52950882 -48.20910653 435.28051563 -51.30078125 436.5234375 C-52.12191406 436.86898682 -52.94304687 437.21453613 -53.7890625 437.57055664 C-54.66304687 437.91852295 -55.53703125 438.26648926 -56.4375 438.625 C-58.25878898 439.39699005 -60.07779954 440.17437674 -61.89453125 440.95703125 C-62.78736816 441.34068848 -63.68020508 441.7243457 -64.60009766 442.11962891 C-77.70609827 447.98704167 -89.83475923 456.45124377 -101.125 465.25 C-102.20587891 466.06984375 -102.20587891 466.06984375 -103.30859375 466.90625 C-125.59663133 484.18039406 -147.78129687 506.55856046 -160.125 532.25 C-161.445 532.25 -162.765 532.25 -164.125 532.25 C-164.63546875 531.19425781 -164.63546875 531.19425781 -165.15625 530.1171875 C-167.86304997 524.60280245 -170.68773383 519.22705263 -173.8125 513.9375 C-182.47897485 499.10188576 -189.29767611 483.14696239 -196.16186523 467.41723633 C-196.84760783 465.87418511 -197.54940162 464.33822457 -198.26196289 462.80737305 C-218.10178934 420.12525383 -231.83855629 371.81979816 -238.125 325.25 C-238.29725098 323.97785645 -238.46950195 322.70571289 -238.64697266 321.39501953 C-249.27359459 241.64923863 -242.37837739 160.18029888 -192.125 94.25 C-185.53618389 85.75738879 -178.34014746 78.02459664 -170.75 70.4375 C-169.89828217 69.58418091 -169.89828217 69.58418091 -169.02935791 68.71362305 C-159.43382968 59.14395696 -149.51285427 50.65145897 -138.125 43.25 C-137.41134277 42.78223145 -136.69768555 42.31446289 -135.96240234 41.83251953 C-131.98095055 39.24216644 -127.95602926 36.73815245 -123.87841797 34.30224609 C-122.27444767 33.33968525 -120.68520909 32.35268515 -119.09765625 31.36328125 C-90.97017045 14.19355398 -57.63628043 4.93447657 -25.125 1.25 C-24.36944824 1.1557373 -23.61389648 1.06147461 -22.83544922 0.96435547 C-15.23849274 0.08820555 -7.64053992 0.00665267 0 0 Z " fill="#FE6A6C" transform="translate(984.125,345.75)"/>
<path d="M0 0 C4.67883776 3.09460912 9.20615204 6.31746166 13.6875 9.6875 C14.39156982 10.21641846 15.09563965 10.74533691 15.82104492 11.2902832 C21.67476219 15.71079143 27.36155145 20.30840136 33 25 C34.87444564 26.52151654 36.74945016 28.0423448 38.625 29.5625 C42.71728357 32.90967361 46.71076544 36.34237365 50.63671875 39.8828125 C52.00151405 41.10548862 53.37337943 42.32055637 54.76367188 43.51416016 C59.78534375 47.83755947 64.48566806 52.39627823 69.125 57.125 C74.5135856 62.65139699 74.5135856 62.65139699 80.2890625 67.76171875 C82.56595638 69.64163257 84.38304991 71.42259476 86.25 73.6875 C89.00006296 76.9232253 91.89772584 79.90970729 94.9375 82.875 C99.03991012 86.92760848 102.67507549 91.16080431 106.2109375 95.7109375 C107.7153323 97.63577452 109.26013874 99.48112103 110.875 101.3125 C139.62864746 134.51983741 162.81881619 174.44003768 178.88427734 215.17138672 C179.9453876 217.86154501 181.02795784 220.54219773 182.11328125 223.22265625 C194.25237021 253.64761414 201.65477834 285.59550947 206 318 C206.11859375 318.81436523 206.2371875 319.62873047 206.359375 320.46777344 C210.19569116 347.0593816 209.30314849 375.56274325 205 402 C204.83371094 403.04446289 204.66742187 404.08892578 204.49609375 405.16503906 C200.50592012 429.51248742 194.07039942 453.44476364 184 476 C183.59942383 476.90524414 183.19884766 477.81048828 182.78613281 478.74316406 C173.76080386 498.92432361 162.55676375 517.54297684 149 535 C148.2884375 535.92425781 147.576875 536.84851562 146.84375 537.80078125 C133.68562671 554.37117905 118.24534312 570.64039727 101 583 C100.10740479 583.64485352 100.10740479 583.64485352 99.19677734 584.30273438 C84.65575969 594.78766552 70.23205 604.34618808 54 612 C53.26072266 612.35562012 52.52144531 612.71124023 51.75976562 613.07763672 C32.41911864 622.35083008 12.09516774 629.92956745 -9 634 C-9.85745819 634.16575531 -10.71491638 634.33151062 -11.59835815 634.50228882 C-26.83058882 637.3666227 -41.6084508 638.63946849 -57.10180664 638.52148438 C-60.43384685 638.50002353 -63.76372679 638.52145313 -67.09570312 638.546875 C-91.28106218 638.57946325 -114.07282679 634.61537108 -137 627 C-138.15580566 626.61690674 -138.15580566 626.61690674 -139.33496094 626.22607422 C-151.45994176 622.12312122 -164.89341835 616.9919738 -175 609 C-175 605 -175 605 -173.7421875 603.71875 C-173.12601563 603.3165625 -172.50984375 602.914375 -171.875 602.5 C-160.62504408 594.5255945 -150.81304048 585.01618616 -141.0625 575.3125 C-140.566362 574.82153839 -140.070224 574.33057678 -139.55905151 573.82473755 C-134.1739298 568.48395066 -129.06754397 563.08282724 -124.51342773 557.00366211 C-122.71651117 554.62468256 -120.79041298 552.38958695 -118.8293457 550.14599609 C-114.260775 544.9187793 -110.29300466 539.634778 -106.6796875 533.6875 C-104.88463972 530.81542355 -102.94508587 528.10228647 -100.9375 525.375 C-94.93321775 517.20732511 -89.80104202 508.92552647 -85 500 C-84.53287598 499.13294434 -84.06575195 498.26588867 -83.58447266 497.37255859 C-71.19850011 474.25178296 -60.38791374 450.86857109 -52 426 C-51.59563721 424.82421387 -51.19127441 423.64842773 -50.7746582 422.43701172 C-47.85989007 413.87082279 -45.31128483 405.26934392 -43.0625 396.5 C-42.80962219 395.51571014 -42.80962219 395.51571014 -42.55163574 394.51153564 C-36.29100151 370.01062935 -31.87098429 345.12349177 -29 320 C-28.91312927 319.3197879 -28.82625854 318.63957581 -28.73675537 317.93875122 C-26.35307332 299.00804016 -26.62519972 279.93041635 -26.62939453 260.88500977 C-26.62955577 257.03357902 -26.61585258 253.18263062 -26.58837891 249.33129883 C-26.38308301 220.11283703 -27.24703038 190.98051813 -32.51953125 162.16015625 C-33.46691558 152.14314588 -29.65766031 145.64928958 -24.91479492 137.08837891 C-13.47891317 116.40507675 -6.6955707 93.90839183 -2.6875 70.6875 C-2.52789795 69.7704126 -2.3682959 68.8533252 -2.20385742 67.90844727 C0.32895465 52.03047076 0.13564662 35.96765091 0.0625 19.9375 C0.05746832 17.99153763 0.0529084 16.04557398 0.04882812 14.09960938 C0.03796995 9.39970713 0.02080013 4.69986832 0 0 Z " fill="#6ACB77" transform="translate(1250,968)"/>
<path d="M0 0 C0.93875977 0.16628906 1.87751953 0.33257812 2.84472656 0.50390625 C66.69010731 12.18689697 125.24108338 50.51185426 162.51171875 103.5390625 C169.01601452 112.98049418 174.69377093 122.84260681 180 133 C180.38542969 133.73669922 180.77085937 134.47339844 181.16796875 135.23242188 C199.1416539 170.10627856 206.44361392 207.4459577 206.375 246.375 C206.37418427 248.1099472 206.37418427 248.1099472 206.37335205 249.87994385 C206.33722126 266.5634079 205.96003857 282.71109965 202 299 C201.75910645 300.0115918 201.51821289 301.02318359 201.27001953 302.06542969 C196.93945709 319.84585241 196.93945709 319.84585241 193 327 C189.10771822 325.65688868 186.56925074 323.97140232 183.5 321.25 C170.53005072 310.38328574 155.71970802 301.31563091 141 293 C139.95440918 292.40541992 139.95440918 292.40541992 138.88769531 291.79882812 C106.23833785 273.41653727 69.39812661 262.90746275 32.625 256.75 C31.88117065 256.6249408 31.13734131 256.49988159 30.37097168 256.37103271 C14.71133181 253.76369012 -0.92985095 251.81808566 -16.8125 251.375 C-18.01044189 251.33777832 -19.20838379 251.30055664 -20.44262695 251.26220703 C-30.96625934 250.95745915 -41.47348191 250.81699784 -52 251 C-52.91120605 251.01256836 -53.82241211 251.02513672 -54.76123047 251.03808594 C-95.34569049 251.71714981 -135.81297133 258.73210761 -175 269 C-176.05413086 269.27424805 -177.10826172 269.54849609 -178.19433594 269.83105469 C-190.87370275 273.16312063 -203.37100926 277.00149372 -215.8125 281.125 C-217.04605225 281.53274658 -218.27960449 281.94049316 -219.55053711 282.3605957 C-225.31752142 284.30172791 -230.89934376 286.36857981 -236.44921875 288.8671875 C-245.38156897 292.61351116 -252.03502038 289.02578949 -260.625 285.75 C-271.93125397 281.55840911 -283.18916808 278.38864686 -295 276 C-296.06605469 275.77828125 -297.13210938 275.5565625 -298.23046875 275.328125 C-323.95248959 270.53925793 -349.19393266 272.05906214 -375 275 C-373.00549145 268.5083565 -370.51092202 262.42588159 -367.5625 256.3125 C-366.90725342 254.94955811 -366.90725342 254.94955811 -366.23876953 253.55908203 C-354.2346212 228.87706156 -340.18885079 204.85967885 -325 182 C-323.99259766 180.46085937 -323.99259766 180.46085937 -322.96484375 178.890625 C-318.50148381 172.11388582 -313.8346166 165.51622237 -309 159 C-308.26652344 158.00871094 -307.53304688 157.01742187 -306.77734375 155.99609375 C-302.60410547 150.39121284 -298.35371606 144.86423172 -293.9609375 139.4296875 C-292.64343832 137.79724828 -291.3362543 136.15643475 -290.0390625 134.5078125 C-285.99113722 129.3719073 -281.78628731 124.44134983 -277.37109375 119.6171875 C-275.48135424 117.53131358 -273.6351462 115.42170645 -271.79638672 113.29150391 C-268.29656757 109.28920384 -264.64184101 105.48071614 -260.88671875 101.71875 C-259.90503471 100.73207336 -259.90503471 100.73207336 -258.90351868 99.72546387 C-257.52918802 98.3461105 -256.15353655 96.96807196 -254.77661133 95.59130859 C-252.69777781 93.51028862 -250.62708713 91.42139155 -248.55664062 89.33203125 C-241.68015224 82.42663121 -234.79840571 75.87503211 -227 70 C-225.18429654 68.50387929 -223.37107289 67.00473265 -221.5625 65.5 C-199.4978643 47.46108474 -175.03537295 32.86958055 -149.17919922 21.00585938 C-147.44508922 20.20544114 -145.72237551 19.38034379 -144.00390625 18.546875 C-100.09497428 -2.52941235 -47.8329455 -8.65045793 0 0 Z " fill="#FEA94D" transform="translate(1358,493)"/>
<path d="M0 0 C0.89152771 0.00027191 1.78305542 0.00054382 2.70159912 0.00082397 C17.5576902 0.02154169 32.21984558 0.58895969 47 2.1875 C48.39049561 2.32430176 48.39049561 2.32430176 49.80908203 2.46386719 C89.61615175 6.43690689 130.81413275 18.08609058 166 37.1875 C167.04945801 37.7434082 167.04945801 37.7434082 168.12011719 38.31054688 C182.85914693 46.11853001 196.73445363 55.07882722 210 65.1875 C210.75667969 65.75855469 211.51335937 66.32960938 212.29296875 66.91796875 C214.54735112 68.65175148 216.77684833 70.41381912 219 72.1875 C220.38251953 73.28771484 220.38251953 73.28771484 221.79296875 74.41015625 C235.81473977 85.90836392 248.91544015 98.82537009 260 113.1875 C261.51858756 115.00188201 263.03948495 116.81433287 264.5625 118.625 C269.1364407 124.21713967 273.100506 130.11266844 277 136.1875 C277.56203125 137.03570313 278.1240625 137.88390625 278.703125 138.7578125 C306.81820003 181.71869818 321.22312032 231.14650514 321.1875 282.375 C321.18709213 283.38089172 321.18709213 283.38089172 321.18667603 284.40710449 C321.1656195 295.78167013 320.55089864 306.92103442 319 318.1875 C318.90348145 318.95352539 318.80696289 319.71955078 318.70751953 320.50878906 C313.61195378 360.65414946 297.08126808 400.72458914 273 433.1875 C272.60071289 433.72810059 272.20142578 434.26870117 271.79003906 434.82568359 C266.85472859 441.47737254 261.68835363 447.84233598 256.06640625 453.93359375 C254.23259442 455.9338006 252.48962633 457.98093238 250.75 460.0625 C234.67360198 478.48337273 213.80712744 492.67346758 193 505.1875 C191.9171875 505.84621094 190.834375 506.50492188 189.71875 507.18359375 C188.7596875 507.74175781 187.800625 508.29992188 186.8125 508.875 C185.99394531 509.35324219 185.17539063 509.83148437 184.33203125 510.32421875 C181.47499218 511.38184963 179.9146318 510.8733135 177 510.1875 C176.91024902 509.49116455 176.82049805 508.7948291 176.72802734 508.07739258 C174.30618623 489.57579319 171.13105597 471.39029895 167 453.1875 C166.67225586 451.73029541 166.67225586 451.73029541 166.33789062 450.24365234 C160.36735094 424.25343381 151.2682981 398.34428486 140 374.1875 C139.55188965 373.21731934 139.1037793 372.24713867 138.64208984 371.24755859 C129.0234507 350.50970749 118.49084497 330.34737003 106 311.1875 C104.98679687 309.62515625 104.98679687 309.62515625 103.953125 308.03125 C93.80340326 292.60367295 83.11974279 276.77598785 70.69140625 263.08984375 C68.62799214 260.76909855 66.69616557 258.35733549 64.75 255.9375 C55.56095344 244.67592667 45.37125262 234.37225195 35.10253906 224.10473633 C32.99775343 221.99775109 30.90113426 219.88285671 28.8046875 217.76757812 C22.20170339 211.13766151 15.60774258 204.73327984 8.24047852 198.94824219 C6.06967089 197.2422528 3.9974294 195.46249826 1.9375 193.625 C-1.76239505 190.35462433 -5.58944011 187.26757309 -9.4609375 184.203125 C-11.05936011 182.93422336 -12.6492538 181.65442846 -14.2265625 180.359375 C-22.52433623 173.57287965 -31.27515943 167.40681055 -40 161.1875 C-41.10649902 160.39690186 -41.10649902 160.39690186 -42.23535156 159.59033203 C-58.41453931 147.9986375 -58.41453931 147.9986375 -75.17578125 137.28125 C-80.4583006 133.36502542 -82.65068782 127.99874765 -85.0625 122.0625 C-93.32645579 102.61642181 -104.42859143 82.53512946 -119.11450195 67.18139648 C-120.8641196 65.33119225 -122.53071195 63.43707759 -124.1875 61.50390625 C-128.16861749 56.93968515 -132.35286349 52.60395912 -136.625 48.3125 C-137.40536621 47.52746094 -138.18573242 46.74242187 -138.98974609 45.93359375 C-144.58730197 40.38760185 -150.37278014 35.50018968 -156.7890625 30.9375 C-157.88347656 30.07125 -157.88347656 30.07125 -159 29.1875 C-159 28.5275 -159 27.8675 -159 27.1875 C-124.52818804 15.47085134 -89.22884977 7.45401429 -53.125 2.875 C-51.24748047 2.63571777 -51.24748047 2.63571777 -49.33203125 2.39160156 C-32.91802134 0.4286801 -16.51614969 -0.01915219 0 0 Z " fill="#FED93C" transform="translate(1316,780.8125)"/>
<path d="M0 0 C0 0.99 0 1.98 0 3 C-1.37540819 4.24122203 -2.76526361 5.47052234 -4.2265625 6.609375 C-6.03359719 8.02634494 -7.7275218 9.53048333 -9.4375 11.0625 C-11.80038152 13.10962898 -14.13613215 14.74334264 -16.875 16.25 C-20.05820432 17.64817278 -20.05820432 17.64817278 -21 20 C-22.09417236 20.63832764 -22.09417236 20.63832764 -23.21044922 21.28955078 C-26.44587536 23.27339426 -28.97880161 25.69123768 -31.6328125 28.3671875 C-32.15132782 28.88378937 -32.66984314 29.40039124 -33.20407104 29.93264771 C-34.29394246 31.0211642 -35.38131665 32.11218618 -36.46630859 33.20556641 C-38.11990119 34.86986817 -39.78389181 36.5232305 -41.44921875 38.17578125 C-42.51105848 39.2389427 -43.57227759 40.30272445 -44.6328125 41.3671875 C-45.37351486 42.10181717 -45.37351486 42.10181717 -46.12918091 42.85128784 C-49.74900359 46.52027859 -52.09351612 50.30034273 -54.5 54.8125 C-54.995 55.534375 -55.49 56.25625 -56 57 C-56.99 57 -57.98 57 -59 57 C-59.0825 57.94875 -59.165 58.8975 -59.25 59.875 C-60 63 -60 63 -62 64.25 C-62.66 64.4975 -63.32 64.745 -64 65 C-64.495 65.99 -64.495 65.99 -65 67 C-65.66 66.67 -66.32 66.34 -67 66 C-65.69088642 64.22666174 -64.37745656 62.45650994 -63.0625 60.6875 C-62.33160156 59.70136719 -61.60070312 58.71523438 -60.84765625 57.69921875 C-53.68508713 48.31883887 -46.07415248 39.75089732 -37.70703125 31.44628906 C-35.99501212 29.74504351 -34.29402312 28.03328881 -32.59375 26.3203125 C-26.70278894 20.42112138 -20.78847243 14.8755808 -14 10 C-13.3385498 9.51644043 -12.67709961 9.03288086 -11.99560547 8.53466797 C-10.15223302 7.19686376 -8.29797951 5.87637509 -6.4375 4.5625 C-5.81037109 4.11712891 -5.18324219 3.67175781 -4.53710938 3.21289062 C-3.02601467 2.14012873 -1.51320141 1.0697882 0 0 Z " fill="#FC84C3" transform="translate(553,539)"/>
<path d="M0 0 C1.52152079 0.11633358 3.04220723 0.2435887 4.5625 0.375 C5.40941406 0.44460938 6.25632812 0.51421875 7.12890625 0.5859375 C10.54420995 1.0784847 13.69896617 1.99848152 17 3 C30.18796166 6.95318754 43.3260323 9.75660569 56.9765625 11.5703125 C60 12 60 12 62.53515625 12.55078125 C65.34145944 13.06223112 67.96217614 13.09684125 70.8125 13.0625 C72.27623047 13.04896484 72.27623047 13.04896484 73.76953125 13.03515625 C74.50558594 13.02355469 75.24164062 13.01195312 76 13 C76.33 11.68 76.66 10.36 77 9 C78.76462683 12.08809695 79 13.23312136 79 17 C67.98167752 16.54644325 57.46154892 14.52815242 46.6875 12.3125 C45.81091736 12.13458923 44.93433472 11.95667847 44.03118896 11.77337646 C33.18609132 9.57131237 22.37015977 7.27728092 11.625 4.625 C10.65264404 4.38692627 9.68028809 4.14885254 8.6784668 3.90356445 C2.25628849 2.25628849 2.25628849 2.25628849 0 0 Z " fill="#FA81C0" transform="translate(725,1057)"/>
<path d="M0 0 C0 3 0 3 -1.625 4.75 C-2.40875 5.4925 -3.1925 6.235 -4 7 C-4.845625 8.010625 -5.69125 9.02125 -6.5625 10.0625 C-9.47329392 13.48081697 -12.54901244 16.72891319 -15.6875 19.9375 C-16.16324463 20.43451416 -16.63898926 20.93152832 -17.12915039 21.44360352 C-18.3620229 22.68866759 -19.6768514 23.85133253 -21 25 C-21.99 25 -22.98 25 -24 25 C-25.96713486 26.72160837 -27.75919268 28.43336372 -29.5625 30.3125 C-30.05685547 30.81201172 -30.55121094 31.31152344 -31.06054688 31.82617188 C-33.30658064 34.12083425 -35.21373759 36.32060638 -37 39 C-37.66 38.67 -38.32 38.34 -39 38 C-32.99030592 31.18325536 -26.78755713 24.6011481 -20.36108398 18.17578125 C-18.92986431 16.74235252 -17.50688694 15.30105451 -16.08398438 13.859375 C-11.00764817 8.77244102 -5.93801437 4.06413714 0 0 Z " fill="#FD7671" transform="translate(835,397)"/>
<path d="M0 0 C2 1 2 1 3 3.6953125 C3.33 4.82710937 3.66 5.95890625 4 7.125 C4.34804687 8.30449219 4.69609375 9.48398438 5.0546875 10.69921875 C5.52261719 12.33310547 5.52261719 12.33310547 6 14 C6.20882813 14.72832031 6.41765625 15.45664063 6.6328125 16.20703125 C6.79523438 16.77808594 6.95765625 17.34914063 7.125 17.9375 C7.67028515 19.84599804 8.26298346 21.74234572 8.92578125 23.61328125 C10.24768256 27.78087556 11.17147689 31.97266676 12.0625 36.25 C12.24022949 37.09248291 12.41795898 37.93496582 12.60107422 38.80297852 C13.64710099 43.89020448 14.48127503 48.89163616 14.7265625 54.08984375 C15.05219032 56.36458665 15.97448751 57.95291929 17 60 C18.38455128 67.21011608 18.11300044 74.69263828 18 82 C17.67 82 17.34 82 17 82 C16.87995605 81.17201904 16.75991211 80.34403809 16.63623047 79.4909668 C13.02028364 54.81714713 8.69163987 30.53175726 1.1015625 6.71875 C0 3 0 3 0 0 Z " fill="#FFED40" transform="translate(1475,1202)"/>
<path d="M0 0 C0 0.66 0 1.32 0 2 C-0.69746338 2.04487549 -1.39492676 2.08975098 -2.11352539 2.13598633 C-14.80263811 2.96960799 -27.45029178 3.91001973 -40.0625 5.5625 C-41.03646729 5.68923096 -42.01043457 5.81596191 -43.01391602 5.9465332 C-47.65438498 6.46867218 -47.65438498 6.46867218 -52 8 C-54.37402501 8.07116382 -56.75000677 8.08409085 -59.125 8.0625 C-60.40632813 8.05347656 -61.68765625 8.04445313 -63.0078125 8.03515625 C-64.48894531 8.01775391 -64.48894531 8.01775391 -66 8 C-62.86882321 6.23128584 -60.10091661 5.53681725 -56.5546875 5 C-55.48669922 4.8359668 -54.41871094 4.67193359 -53.31835938 4.50292969 C-52.18205078 4.33696289 -51.04574219 4.17099609 -49.875 4 C-48.70517578 3.82629883 -47.53535156 3.65259766 -46.33007812 3.47363281 C-42.88835526 2.969943 -39.44499032 2.4807923 -36 2 C-34.6682373 1.8134082 -34.6682373 1.8134082 -33.30957031 1.62304688 C-22.1702466 0.10631874 -11.23483772 -0.2390391 0 0 Z " fill="#FFEC3E" transform="translate(1296,782)"/>
<path d="M0 0 C0.66 1.32 1.32 2.64 2 4 C2.66829834 3.96970703 3.33659668 3.93941406 4.02514648 3.90820312 C40.41108137 2.28508516 40.41108137 2.28508516 51 4 C51 4.33 51 4.66 51 5 C50.13556274 4.98428955 50.13556274 4.98428955 49.25366211 4.96826172 C31.32624916 4.68900201 13.79890791 5.98810715 -4 8 C-3.40138258 5.64828869 -2.73075648 3.3140622 -2 1 C-1.34 0.67 -0.68 0.34 0 0 Z " fill="#FEBE54" transform="translate(987,760)"/>
<path d="M0 0 C1.02913587 3.08740761 0.99001716 4.26555264 0.51171875 7.38671875 C0.38216797 8.24330078 0.25261719 9.09988281 0.11914062 9.98242188 C-0.02330078 10.87509766 -0.16574219 11.76777344 -0.3125 12.6875 C-0.44333984 13.56083984 -0.57417969 14.43417969 -0.70898438 15.33398438 C-1.53070635 20.64937433 -2.61456642 25.80311158 -4 31 C-4.33 31 -4.66 31 -5 31 C-5.13286713 23.02797203 -5.13286713 23.02797203 -4 19 C-3.82022138 17.64751163 -3.6549906 16.29305267 -3.5 14.9375 C-3 11 -3 11 -2 8 C-2.020625 7.175 -2.04125 6.35 -2.0625 5.5 C-2 3 -2 3 0 0 Z " fill="#FF67BC" transform="translate(709,527)"/>
<path d="M0 0 C0.33 1.32 0.66 2.64 1 4 C0.071875 4.3403125 0.071875 4.3403125 -0.875 4.6875 C-3.66788847 6.41251935 -3.93245965 7.93971766 -5 11 C-5.515625 11.845625 -6.03125 12.69125 -6.5625 13.5625 C-8.09282935 15.87048808 -8.09282935 15.87048808 -8.5 18.25 C-8.665 18.8275 -8.83 19.405 -9 20 C-9.99 20.33 -10.98 20.66 -12 21 C-11.39244649 18.12627587 -10.51987623 15.90929467 -9.00390625 13.3984375 C-8.61009766 12.74359375 -8.21628906 12.08875 -7.81054688 11.4140625 C-7.39869141 10.74117187 -6.98683594 10.06828125 -6.5625 9.375 C-6.15451172 8.694375 -5.74652344 8.01375 -5.32617188 7.3125 C-3.70801594 4.64109085 -2.21686721 2.21686721 0 0 Z " fill="#F987C3" transform="translate(485,607)"/>
<path d="M0 0 C-10.43939394 6.02272727 -10.43939394 6.02272727 -15 7 C-14 4 -14 4 -11.6015625 2.578125 C-10.61929688 2.13984375 -9.63703125 1.7015625 -8.625 1.25 C-7.64789062 0.80140625 -6.67078125 0.3528125 -5.6640625 -0.109375 C-3 -1 -3 -1 0 0 Z " fill="#F980C3" transform="translate(602,515)"/>
<path d="M0 0 C-0.33 0.66 -0.66 1.32 -1 2 C-2.010625 1.938125 -3.02125 1.87625 -4.0625 1.8125 C-8.55499372 2.02642827 -11.01085961 3.04613532 -15 5 C-15.66 4.34 -16.32 3.68 -17 3 C-5.015625 -1.671875 -5.015625 -1.671875 0 0 Z " fill="#FA80C1" transform="translate(637,504)"/>
<path d="M0 0 C0.66 0.33 1.32 0.66 2 1 C-3.0940919 6.88183807 -3.0940919 6.88183807 -6.875 7.375 C-7.57625 7.25125 -8.2775 7.1275 -9 7 C-6.25604436 4.05278838 -3.61662784 1.80831392 0 0 Z " fill="#FA7FC2" transform="translate(570,528)"/>
<path d="M0 0 C0 0.66 0 1.32 0 2 C-3.55760365 4.61588503 -6.64477147 5.49357808 -11 6 C-8.24029211 2.78034079 -4.3526723 0 0 0 Z " fill="#F682C4" transform="translate(586,521)"/>
<path d="M0 0 C1.37245106 2.74490212 0.93580311 4.12060581 0 7 C-2.0625 8.3125 -2.0625 8.3125 -4 9 C-2.94124926 5.59687262 -1.99097846 2.98646769 0 0 Z " fill="#FD85C1" transform="translate(471,630)"/>
</svg>
